<?xml version="1.0" encoding="utf-8"?>
<!-- Generator: Adobe Illustrator 24.0.1, SVG Export Plug-In . SVG Version: 6.00 Build 0)  -->
<svg version="1.1" id="Layer_1" xmlns="http://www.w3.org/2000/svg" xmlns:xlink="http://www.w3.org/1999/xlink" x="0px" y="0px"
	 viewBox="0 0 634 489" style="enable-background:new 0 0 634 489;" xml:space="preserve">
<style type="text/css">
	.st0{display:none;}
	.st1{display:inline;fill:url(#XMLID_2_);}
	.st2{display:none;fill:#FFFFFF;}
	.st3{fill:#FFC253;}
	.st4{fill:#E09736;}
	.st5{fill:#FFC854;}
	.st6{opacity:0.4;fill:#624DE3;enable-background:new    ;}
	.st7{fill:none;stroke:#3B55CE;stroke-width:1.05;stroke-linecap:round;stroke-miterlimit:10;}
	.st8{fill:#3B55CE;}
	.st9{fill:#AAEEED;}
	.st10{fill:#1E4174;}
	.st11{clip-path:url(#SVGID_2_);}
	.st12{fill:none;stroke:#AAEEED;stroke-width:0.5508;stroke-linecap:round;stroke-miterlimit:10;}
	.st13{clip-path:url(#SVGID_4_);}
	.st14{clip-path:url(#SVGID_6_);}
	.st15{fill:#FF9A8D;}
	.st16{clip-path:url(#SVGID_8_);}
	.st17{clip-path:url(#SVGID_10_);}
	.st18{clip-path:url(#SVGID_12_);}
	.st19{fill:#85B8ED;}
	.st20{fill:#4E7EAC;}
	.st21{clip-path:url(#SVGID_15_);fill:none;stroke:#274D79;stroke-width:0.5508;stroke-miterlimit:10;}
	.st22{clip-path:url(#SVGID_18_);fill:none;stroke:#274D79;stroke-width:0.5508;stroke-miterlimit:10;}
	.st23{clip-path:url(#SVGID_21_);fill:none;stroke:#274D79;stroke-width:0.5508;stroke-miterlimit:10;}
	.st24{fill:#001C45;}
	.st25{fill:#03AA99;}
	.st26{fill:#3ED9C7;}
	.st27{fill:#BA5964;}
	.st28{fill:#624DE3;}
	.st29{fill:none;stroke:#001C45;stroke-width:0.7875;stroke-linecap:round;stroke-miterlimit:10;}
	.st30{fill:#DD7A79;}
	.st31{fill:#44369E;}
	.st32{opacity:0.5;fill:#44369E;enable-background:new    ;}
	.st33{fill:#E5F7FF;}
	.st34{fill:#8FC9C6;}
	.st35{fill:#228C7E;}
	.st36{clip-path:url(#SVGID_24_);}
	.st37{fill:none;stroke:#8FC9C6;stroke-width:0.525;stroke-linecap:round;stroke-miterlimit:10;}
	.st38{clip-path:url(#SVGID_26_);}
	.st39{clip-path:url(#SVGID_28_);}
	.st40{clip-path:url(#SVGID_30_);}
	.st41{fill:none;stroke:#AAEEED;stroke-width:0.525;stroke-linecap:round;stroke-miterlimit:10;}
	.st42{clip-path:url(#SVGID_32_);}
	.st43{clip-path:url(#SVGID_34_);}
	.st44{clip-path:url(#SVGID_36_);fill:none;stroke:#274D79;stroke-width:0.525;stroke-miterlimit:10;}
	.st45{clip-path:url(#SVGID_38_);fill:none;stroke:#274D79;stroke-width:0.525;stroke-miterlimit:10;}
	.st46{clip-path:url(#SVGID_40_);fill:none;stroke:#274D79;stroke-width:0.525;stroke-miterlimit:10;}
	.st47{fill:#E2E9F2;}
</style>
<g id="Background" class="st0">
	
		<linearGradient id="XMLID_2_" gradientUnits="userSpaceOnUse" x1="259" y1="535.641" x2="259" y2="33.426" gradientTransform="matrix(1 0 0 -1 0 490)">
		<stop  offset="0" style="stop-color:#FFFDFE"/>
		<stop  offset="1" style="stop-color:#F1F5FF"/>
	</linearGradient>
	<path id="XMLID_3419_" class="st1" d="M-116-41h750v500h-750V-41z"/>
</g>
<image style="overflow:visible;opacity:0.5;enable-background:new    ;" width="641" height="378" xlink:href="DD285F79.png"  transform="matrix(0.9913 0 0 0.9974 -1.4021 108.25)">
</image>
<path id="XMLID_1519_" class="st2" d="M-170-47.4h858v498.8h-858V-47.4z"/>
<g id="XMLID_1420_">
	<g id="XMLID_1499_">
		<path id="XMLID_1504_" class="st3" d="M327.9,239.7h252.8v171H327.9V239.7z"/>
		<path id="XMLID_1503_" class="st4" d="M327.9,239.7L446.5,348c4.4,4,11.1,4,15.5,0l118.6-108.2H327.9V239.7z"/>
		<path id="XMLID_1502_" class="st4" d="M580.7,410.7L454.3,278.8l126.4,120.6V410.7z"/>
		<path id="XMLID_1501_" class="st4" d="M327.9,410.7l126.4-131.9L327.9,399.4V410.7z"/>
		<path id="XMLID_1500_" class="st5" d="M327.9,239.7l116.8,98.7c5.5,4.7,13.6,4.7,19.1,0l116.8-98.7H327.9z"/>
	</g>
	<g id="XMLID_1496_">
		<path id="XMLID_1498_" class="st6" d="M560.5,410.7c0,0-8-3.6-7.4-12.2s6.4-10.3,11.5-13.5c5.1-3.1,5.5-8.4,5.7-14.8
			s4.5-12.9,13.1-12.5s11.8,2.1,18-5.3s14.6-7.2,18.1-3.1s3.7,11.1-1.6,16c-6.5,5.9-8.2,7.4-10,13.9c-2.5,8.8,1.1,17.4-2.1,21.5
			c-4.4,5.5-9.1,4.1-13.6,5.9s-4.7,4-4.7,4h-27V410.7z"/>
		<path id="XMLID_1497_" class="st7" d="M611.6,355c-13.1,7.7-36,30.9-39.8,55.6"/>
	</g>
	<g id="XMLID_1444_">
		<path id="XMLID_1495_" class="st8" d="M412.2,158c0-2.2,1.8-3.9,3.9-3.9s3.9,1.8,3.9,3.9c0,2.2-1.8,3.9-3.9,3.9
			S412.2,160.2,412.2,158z"/>
		<g id="XMLID_1487_">
			<path id="XMLID_1494_" class="st9" d="M373.5,285.8c-0.5,0.6-0.6,2.1,1.9,3.9s7.6,2.5,9.7,2.6c2.1,0.1,3.4-0.2,6.2,1.1
				c2.8,1.3,7.7,2.2,9.5,1.3c0.6-0.5,0.6-1.8,0.6-1.8L373.5,285.8L373.5,285.8z"/>
			<g id="XMLID_1489_">
				<g>
					<path id="SVGID_14_" class="st10" d="M402,283.5c-0.1,2.1,0.4,7.3-0.6,9.5c-2.5,1.3-7,0.3-10.1-1.3c-3.1-1.6-5.9-0.5-10.1-1.3
						c-4.2-0.7-7.3-2.7-7.7-4.6c-0.5-2.1,7-1.8,12.3-2.1c5.9-0.4,9.3-2.4,9.3-2.4L402,283.5L402,283.5z"/>
				</g>
				<g>
					<defs>
						<path id="SVGID_1_" d="M402,283.5c-0.1,2.1,0.4,7.3-0.6,9.5c-2.5,1.3-7,0.3-10.1-1.3c-3.1-1.6-5.9-0.5-10.1-1.3
							c-4.2-0.7-7.3-2.7-7.7-4.6c-0.5-2.1,7-1.8,12.3-2.1c5.9-0.4,9.3-2.4,9.3-2.4L402,283.5L402,283.5z"/>
					</defs>
					<clipPath id="SVGID_2_">
						<use xlink:href="#SVGID_1_"  style="overflow:visible;"/>
					</clipPath>
					<g id="XMLID_1493_" class="st11">
						<path class="st12" d="M392.4,285.4c0,0-0.3-3-1.4-4.2"/>
					</g>
				</g>
				<g>
					<defs>
						<path id="SVGID_3_" d="M402,283.5c-0.1,2.1,0.4,7.3-0.6,9.5c-2.5,1.3-7,0.3-10.1-1.3c-3.1-1.6-5.9-0.5-10.1-1.3
							c-4.2-0.7-7.3-2.7-7.7-4.6c-0.5-2.1,7-1.8,12.3-2.1c5.9-0.4,9.3-2.4,9.3-2.4L402,283.5L402,283.5z"/>
					</defs>
					<clipPath id="SVGID_4_">
						<use xlink:href="#SVGID_3_"  style="overflow:visible;"/>
					</clipPath>
					<g id="XMLID_1492_" class="st13">
						<path class="st12" d="M388.3,285.9c0,0-0.3-3-1.4-4.2"/>
					</g>
				</g>
				<g>
					<defs>
						<path id="SVGID_5_" d="M402,283.5c-0.1,2.1,0.4,7.3-0.6,9.5c-2.5,1.3-7,0.3-10.1-1.3c-3.1-1.6-5.9-0.5-10.1-1.3
							c-4.2-0.7-7.3-2.7-7.7-4.6c-0.5-2.1,7-1.8,12.3-2.1c5.9-0.4,9.3-2.4,9.3-2.4L402,283.5L402,283.5z"/>
					</defs>
					<clipPath id="SVGID_6_">
						<use xlink:href="#SVGID_5_"  style="overflow:visible;"/>
					</clipPath>
					<g id="XMLID_1491_" class="st14">
						<path class="st12" d="M384.2,286.5c0,0-0.3-3-1.4-4.2"/>
					</g>
				</g>
			</g>
			<path id="XMLID_1488_" class="st15" d="M404.2,276.2l-2.2,7.4c0,0-1,0.1-1.5,0.4c-0.5,0.4-1.4,1.8-2.1,1.6
				c-2.6-0.5-3.3-4.3-3.3-4.3l1.9-7.7L404.2,276.2z"/>
		</g>
		<path id="XMLID_1486_" class="st10" d="M442.3,210.7l-1,7.8l-27.2-0.6c0,0-6.4-0.1-8.3,6.4s-9,50.2-9,50.2s3.8,2.8,7.7,2.2
			c0,0,12.8-26.5,14.7-33.8c1.8-7.3,0.9-13.4,0.9-13.4l32.8-2.8L442.3,210.7L442.3,210.7z"/>
		<g id="XMLID_1477_">
			<path id="XMLID_1485_" class="st9" d="M402.7,303.4c0,0.8,1,1.9,4.1,1.4c3.1-0.4,7.2-3.5,8.8-4.9c1.6-1.4,2.3-2.5,5.2-3.6
				c2.9-1,7.1-3.8,7.7-5.7c0.1-0.8-0.8-1.7-0.8-1.7L402.7,303.4L402.7,303.4z"/>
			<g id="XMLID_1479_">
				<g>
					<path id="SVGID_16_" class="st10" d="M421.5,281.8c1.4,1.6,5.4,4.9,6.2,7.2c-0.9,2.6-4.8,5.1-8.1,6.1c-3.4,1-4.5,3.8-8.1,6.2
						c-3.5,2.4-7.1,3.2-8.8,2.1c-1.8-1.2,3.8-6.2,7.3-10.1c3.9-4.4,5-8.2,5-8.2L421.5,281.8z"/>
				</g>
				<g>
					<defs>
						<path id="SVGID_7_" d="M421.5,281.8c1.4,1.6,5.4,4.9,6.2,7.2c-0.9,2.6-4.8,5.1-8.1,6.1c-3.4,1-4.5,3.8-8.1,6.2
							c-3.5,2.4-7.1,3.2-8.8,2.1c-1.8-1.2,3.8-6.2,7.3-10.1c3.9-4.4,5-8.2,5-8.2L421.5,281.8z"/>
					</defs>
					<clipPath id="SVGID_8_">
						<use xlink:href="#SVGID_7_"  style="overflow:visible;"/>
					</clipPath>
					<g id="XMLID_1484_" class="st16">
						<path class="st12" d="M415.9,289.9c0,0-2.3-1.9-3.9-2"/>
					</g>
				</g>
				<g>
					<defs>
						<path id="SVGID_9_" d="M421.5,281.8c1.4,1.6,5.4,4.9,6.2,7.2c-0.9,2.6-4.8,5.1-8.1,6.1c-3.4,1-4.5,3.8-8.1,6.2
							c-3.5,2.4-7.1,3.2-8.8,2.1c-1.8-1.2,3.8-6.2,7.3-10.1c3.9-4.4,5-8.2,5-8.2L421.5,281.8z"/>
					</defs>
					<clipPath id="SVGID_10_">
						<use xlink:href="#SVGID_9_"  style="overflow:visible;"/>
					</clipPath>
					<g id="XMLID_1483_" class="st17">
						<path class="st12" d="M413.4,293.1c0,0-2.3-1.9-3.9-2"/>
					</g>
				</g>
				<g>
					<defs>
						<path id="SVGID_11_" d="M421.5,281.8c1.4,1.6,5.4,4.9,6.2,7.2c-0.9,2.6-4.8,5.1-8.1,6.1c-3.4,1-4.5,3.8-8.1,6.2
							c-3.5,2.4-7.1,3.2-8.8,2.1c-1.8-1.2,3.8-6.2,7.3-10.1c3.9-4.4,5-8.2,5-8.2L421.5,281.8z"/>
					</defs>
					<clipPath id="SVGID_12_">
						<use xlink:href="#SVGID_11_"  style="overflow:visible;"/>
					</clipPath>
					<g id="XMLID_1482_" class="st18">
						<path class="st12" d="M410.9,296.4c0,0-2.3-1.9-3.9-2"/>
					</g>
				</g>
			</g>
			<path id="XMLID_1478_" class="st15" d="M420.3,275.4l1.2,6.5c0,0-0.7,0.8-0.8,1.4s0.2,2.2-0.3,2.6c-2.2,1.5-5.4-0.8-5.4-0.8
				l-2.6-8L420.3,275.4L420.3,275.4z"/>
		</g>
		<path id="XMLID_1476_" class="st19" d="M462.7,207.4c1,2.6,3.2,5.6,4.6,8s5.7,8.7,3.2,15.4c-2.7,7.2-8.6,8.9-14.8,8.9h-14.3
			c-4.2,0-30-6.3-30-6.3s3,1.7,4.4,6.3s4.4,35.6,4.4,35.6c-1.9,1.9-4.6,2.7-7.9,2.4c0,0-7.7-24.1-10.9-32.9
			c-3.4-9.3-7.1-18.4-6.4-22.4c1-5.6,10.8-5.8,18.8-5.5c8.1,0.3,26.6,1,30.4,0.4l-2-6.7L462.7,207.4L462.7,207.4z"/>
		<path id="XMLID_1475_" class="st20" d="M470.6,230.8c2.5-6.7-1.8-13-3.2-15.4c-1.4-2.4-3.6-5.4-4.6-8l-20.5,3.3l1.2,4.3
			c0,0,11.3,1.6,16.3-4.3c0,0,3.6,5.5,4.7,8.8c1.4,4.6,1.1,11.9-7.9,13.7c-8.9,1.8-41.8-3.1-46.1-3.5c-4.4-0.5-2.9,2-0.5,7.1
			s3.4,14.3,5.6,25.3c1.4,7,3,14.7,3,14.7c0.6-0.4,1.2-0.8,1.8-1.3c0,0-2.9-31-4.4-35.6c-1.5-4.6-4.4-6.3-4.4-6.3s25.8,6.3,30,6.3
			h14.3C461.9,239.7,467.9,237.9,470.6,230.8L470.6,230.8z"/>
		<g id="XMLID_1470_">
			<g>
				<defs>
					<path id="SVGID_13_" d="M462.7,207.4c1,2.6,3.2,5.6,4.6,8s5.7,8.7,3.2,15.4c-2.7,7.2-8.6,8.9-14.8,8.9h-14.3
						c-4.2,0-30-6.3-30-6.3s3,1.7,4.4,6.3s4.4,35.6,4.4,35.6c-1.9,1.9-4.6,2.7-7.9,2.4c0,0-7.8-24-10.9-32.9
						c-3.2-9.2-7.1-18.4-6.4-22.4c1-5.6,10.8-5.8,18.8-5.5c8.1,0.3,26.6,1,30.4,0.4l-2-6.7L462.7,207.4L462.7,207.4z"/>
				</defs>
				<clipPath id="SVGID_15_">
					<use xlink:href="#SVGID_13_"  style="overflow:visible;"/>
				</clipPath>
				<path id="XMLID_1474_" class="st21" d="M455,207.4c1,6.1,3.6,9.1,3.3,14.7c-0.2,5.6-4.7,8.4-17.8,7.2c-13.1-1.2-33.2-4.1-35-3.6
					s-1.2,3.2,1.2,11.1C409,244.7,417,280,417,280"/>
			</g>
			<g>
				<defs>
					<path id="SVGID_17_" d="M462.7,207.4c1,2.6,3.2,5.6,4.6,8s5.7,8.7,3.2,15.4c-2.7,7.2-8.6,8.9-14.8,8.9h-14.3
						c-4.2,0-30-6.3-30-6.3s3,1.7,4.4,6.3s4.4,35.6,4.4,35.6c-1.9,1.9-4.6,2.7-7.9,2.4c0,0-7.8-24-10.9-32.9
						c-3.2-9.2-7.1-18.4-6.4-22.4c1-5.6,10.8-5.8,18.8-5.5c8.1,0.3,26.6,1,30.4,0.4l-2-6.7L462.7,207.4L462.7,207.4z"/>
				</defs>
				<clipPath id="SVGID_18_">
					<use xlink:href="#SVGID_17_"  style="overflow:visible;"/>
				</clipPath>
				<path id="XMLID_1473_" class="st22" d="M458.2,223.5c0,0-2.9,0.7-5.2-1.4c-2.3-2-3-11.4-3-11.4"/>
			</g>
			<g>
				<defs>
					<path id="SVGID_19_" d="M462.7,207.4c1,2.6,3.2,5.6,4.6,8s5.7,8.7,3.2,15.4c-2.7,7.2-8.6,8.9-14.8,8.9h-14.3
						c-4.2,0-30-6.3-30-6.3s3,1.7,4.4,6.3s4.4,35.6,4.4,35.6c-1.9,1.9-4.6,2.7-7.9,2.4c0,0-7.8-24-10.9-32.9
						c-3.2-9.2-7.1-18.4-6.4-22.4c1-5.6,10.8-5.8,18.8-5.5c8.1,0.3,26.6,1,30.4,0.4l-2-6.7L462.7,207.4L462.7,207.4z"/>
				</defs>
				<clipPath id="SVGID_21_">
					<use xlink:href="#SVGID_19_"  style="overflow:visible;"/>
				</clipPath>
				<path id="XMLID_1472_" class="st23" d="M410.5,274.9c0,0,5.8,1.3,10.3-3.1"/>
			</g>
		</g>
		<path id="XMLID_1469_" class="st24" d="M454,133.1c0,0-4.1-3.5-11.8-2.7c-6.1,0.6-10.6,4.1-12,8.6s-1,12.6,6.4,17.2
			c0,0-2.3,1.2,0.3,3.7c0,0-3.9,1-5.2,3.2s0,4.2,0.8,6.7s1,2.9-2.3,6.2s-6.2,9.2-1.5,16.7s12.8,13.8,24.1,13.2
			c11.4-0.6,24.3-4.4,27.5-22s-7.8-21.6-10.9-20.8c0,0,3.4-7.5,2.4-17.2s-5.7-14-9.7-14.3C456.2,131,454,133.1,454,133.1L454,133.1z
			"/>
		<path id="XMLID_1468_" class="st15" d="M451.6,167.8c-1.5,0.5-4,0.8-5.4,1.9c-1.3,1-14.5,21.6-14.5,21.6s-12.2-19-14-21.3
			c-1.9-2.4-11.2-5.3-12.8-5c-2.1,0.4-1,3-0.5,4.7c0.2,1,0.6,3.6,2.3,4.8c1.7,1.2,7.8,2.1,7.8,2.1s10.9,23,13.2,26.5
			c1.5,2.2,3.1,2.3,5.8-0.7c2.6-2.9,13.1-16.6,13.1-16.6L451.6,167.8z"/>
		<path id="XMLID_1467_" class="st25" d="M451.6,167.8c-2.4,0.9-4.6,0.8-5.8,2.4c-1.2,1.6-2.3,8.6-2.3,8.6s6-1.2,7.7-4.4
			c1.6-3.2,1.7-6,1.7-6L451.6,167.8L451.6,167.8z"/>
		<path id="XMLID_1466_" class="st26" d="M460,163.8c0,0,1,0.7,2,0.7c1.3,0.2,5.7,1.2,6.6,2.8c2.1,2.9-0.1,12.6-1.3,19.4
			c-0.8,4.1-8.1,13.4-3.1,22.9c0,0-11.3,6.7-22.7,1c-1.2-5.6,0.2-9.6,0.2-15.9c-1.6-1.7-3.2-5-3.3-7c-0.5-7.7,7.2-10.1,13.2-18.7
			c1.7-2.4,3-2.3,5.2-4C458.5,163.8,460,163.8,460,163.8L460,163.8z"/>
		<path id="XMLID_1465_" class="st15" d="M463.5,167.2c3.4-2.1,6.2,0.5,7.8,4.4c1.6,3.9,10.1,27.9,10.9,30.9
			c0.7,3-2.5,32.6-3.4,34.3s-1.8,2.9-5.2,2.9h-15.7c0,0,0.8-1.6,3.5-2.3s10.3-0.9,11.8-3.3s0.9-30,0.9-30s-9.5-20.2-11.5-25.2
			C460.3,173.9,461.1,168.7,463.5,167.2L463.5,167.2z"/>
		<path id="XMLID_1464_" class="st25" d="M465.1,165.9c-2,0-6.6,4.6-2.7,13.1c0,0,5.1-7.2,9.7-5.4
			C472.1,173.5,470.1,164.7,465.1,165.9z"/>
		<g id="XMLID_1452_">
			<path id="XMLID_1463_" class="st15" d="M456,156.1l3.6,3.2l1.6,5.3c0,0-2.2,1.5-3.1,2.8c-1,1.6-3.4,5.4-6.2,5.7
				c0,0,0.3-3.4-0.1-5.3c-0.4-1.8-1.7-5.5-1.7-5.5L456,156.1L456,156.1z"/>
			<path id="XMLID_1462_" class="st27" d="M456,156.1c0,0,0.8,3,0.6,4.5c-0.1,1.5-1.5,4.7-5,7.2c-0.4-1.8-1.7-5.5-1.7-5.5L456,156.1
				z"/>
			<path id="XMLID_1461_" class="st27" d="M441,149.4c-0.7,2.4-3.4,5.8-2.8,6.3c0.5,0.5,2.8,0.4,2.8,0.4s1.7-1.7,1.1-4
				C441.6,149.8,441,149.4,441,149.4z"/>
			<path id="XMLID_1460_" class="st15" d="M446.9,134.4c-3.3,0.3-6.6,4.9-6.6,9.1c0.1,4.2,1,6.4,0.8,9.4c-0.3,3-0.2,5.8,1,8.9
				c0.8,2.1,3,2.5,5.8,1.8c2.6-0.6,6.2-3.2,7-3.9c0.8-0.8,1-3.6,1-3.6s3.9-0.6,5.7-4.2C463.4,148.4,463.1,132.9,446.9,134.4
				L446.9,134.4z"/>
			<path id="XMLID_1459_" class="st24" d="M456,156.1c0,0,3.6-1.4,3.2-5.4c-0.3-4.1-5.8-4.2-5.6-0.6c0,0-3.8-0.8-6.2-3.5
				c-4.4-5.1-4.9-9.3-4.9-9.3c0.9-6.4,11.4-4.1,11.4-4.1s5.3-2.3,9.9,0.7c3.2,2.2,4.9,9.9,2.3,16.4s-6.6,9-6.6,9L456,156.1
				L456,156.1z"/>
			<g id="XMLID_1453_">
				<g id="XMLID_1456_">
					<path id="XMLID_1458_" class="st24" d="M443.9,150.4c0-0.5,0.5-0.9,1-0.9s0.9,0.5,0.9,1s-0.5,0.9-1,0.9
						C444.2,151.4,443.8,150.9,443.9,150.4z"/>
					<path id="XMLID_1457_" class="st24" d="M443.1,147.9l4.4,1.4c0,0-0.1-1.5-1.6-2C444,146.8,443.1,147.9,443.1,147.9z"/>
				</g>
				<path id="XMLID_1455_" class="st27" d="M456.9,149.9c-0.6-0.2-1.5-0.2-2,0.2c-0.2,0.2,0.1,0.5,0.3,0.4c1-0.4,2.2-0.4,2.7,0.8
					c0,0.1,0.1,0,0.1,0C457.9,150.5,457.6,150.1,456.9,149.9z"/>
				<path id="XMLID_1454_" class="st27" d="M456.5,150c-0.1-0.1-0.4,0.2-0.3,0.3c0.2,0.1,0.4,0.3,0.6,0.5c0.2,0.4,0.3,0.7,0.2,1.1
					c-0.1,1-0.6,1.7-1.6,2v0.1c0.9,0.2,1.8-0.7,2-1.4C457.5,151.6,457.5,150.4,456.5,150L456.5,150z"/>
			</g>
		</g>
		<path id="XMLID_1451_" class="st15" d="M451.8,169c0.1,1.1-2.1,3.7-1.6,5.4c0.5,1.7,4.2,2,6.1,0c2-2,3.1-8.2,5.8-9.9
			c0,0-0.9,0-1.3-1.1L451.8,169z"/>
		<path id="XMLID_1450_" class="st10" d="M412.8,163c0,0-1.1,9.4,2.6,16.9c0.4,0.7,0,1.6-0.7,2l-4.4,2.5c-0.9,0.5-2.1,0-2.3-1.1
			c-0.7-3.7-1.6-11.8,0.9-20.8L412.8,163L412.8,163z"/>
		<path id="XMLID_1449_" class="st15" d="M408.2,165.5c1.1,0.3,2.7,1,2.8,2.1c0,1.1-1.7,1.1-1.7,1.1s1.3,0.6,1.3,1.3
			c0.1,0.8-0.7,1.6-1.9,1.6c0,0,1.2,0.4,0.8,1.5c-0.4,1.1-2.1,0.2-2.5,1c0,0-1-1-1.1-3.3C405.9,168.5,408.2,165.5,408.2,165.5
			L408.2,165.5z"/>
		<path id="XMLID_1448_" class="st15" d="M417.8,170c-1.1-2.1-2.1-3.5-4.5-4.5c-2.1-0.8-3-2.4-3.6-1.6c-0.5,0.8,0.9,3.4,3.2,4.1
			L417.8,170z"/>
		<path id="XMLID_1447_" class="st10" d="M406,162.7l9.1,1.2c2.3,0.3,3.8-11.8,1.5-12.1l-9-1.5L406,162.7z"/>
		<path id="XMLID_1446_" class="st28" d="M407.6,150.3c-3.3-0.4-14.8-5.7-17.3-15.4c-9.4-1.2-13.8,33.6-4.4,34.8
			c2.6-6,15.5-7.5,20.1-6.9C407.8,163,409.4,150.5,407.6,150.3L407.6,150.3z"/>
		<path id="XMLID_1445_" class="st29" d="M445.8,125.3c2.9,0.7,7.2,4.1,8.2,7.8"/>
	</g>
	<g id="XMLID_1438_">
		<path id="XMLID_1443_" class="st30" d="M163.6,237.4c7.5,6.9,15.7,11.5,25.2,9.7c13.4-2.5,23.8-16.2,23.8-16.2s3.4,4.5,3.4,4.9
			s-8.8,18-24.9,21.6c-16,3.6-30.5-7.9-30.5-7.9L163.6,237.4z"/>
		<path id="XMLID_1442_" class="st28" d="M301.1,332.1c6.3,8.9,18.2,12,28.1,7.1l17.9-8.8c3.4-1.7,7.5-0.5,9.5,2.7l32.3,50.7
			c2.3,3.6,1.1,8.3-2.6,10.4c-10.4,5.9-32,15.9-55.7,14c-33.3-2.7-55-33.7-91.7-91.4S183.3,226.4,195,195
			c8.3-22.3,26.5-37.6,36.3-44.6c3.5-2.5,8.3-1.5,10.5,2.1l32.3,50.7c2,3.2,1.3,7.4-1.6,9.8L257,225.5c-8.6,6.9-10.9,18.9-5.4,28.4
			L301.1,332.1L301.1,332.1z"/>
		<path id="XMLID_1441_" class="st31" d="M259.2,223.5l13.1-10.5c2.9-2.4,3.6-6.6,1.6-9.8l-17.1-26.8l-15.4-24.2
			c-2.3-3.4-7-4.2-10.3-1.8s-7.6,5.7-12.1,9.9L259.2,223.5z"/>
		<path id="XMLID_1440_" class="st31" d="M0,50"/>
		<path id="XMLID_1439_" class="st4" d="M164.1,237.7l6.1,4.6c0,0,2.8,8.4-1.9,12.8l-8.1-4.9L164.1,237.7L164.1,237.7z"/>
	</g>
	<g id="XMLID_1435_">
		<path id="XMLID_1437_" class="st32" d="M58.7,410.7c0,0,6-4.5,9.9-12.6c4-8.4,0.4-15.7-5.2-14.6c-6,1.1-6.8-3.7-8.4-9.9
			c-2-7.4-11.6-18-19.4-16.9c-10.1,1.4-3.7,12.2-2.7,16.1s3.6,8.4-2.7,9c-5.7,0.6-8.2,5.7-3.8,11c4.2,5,8.8,5,9,10.1
			s3.4,6.6,6.1,7.8C41.5,410.7,58.7,410.7,58.7,410.7z"/>
		<path id="XMLID_1436_" class="st28" d="M39.8,365.6c0,0,13.8,18,10.3,45.1"/>
	</g>
	<g id="XMLID_1432_">
		<path id="XMLID_1434_" class="st32" d="M181.5,410.7c0,0,3.9-5.2,1.5-12.8c-3-9.8-12.1-14.3-8.8-20.6c2.7-5.3,10.8-2.6,15.1,4.5
			c4.1,6.9,4.5,21.4-2.1,28.9H181.5z"/>
		<path id="XMLID_1433_" class="st7" d="M180.6,380c0,0,12.5,13.5,4.3,30.7"/>
	</g>
	<g id="XMLID_1429_">
		<path id="XMLID_1431_" class="st32" d="M190.8,410.7c0,0,9.4-5.7,14.6-17.6c5.2-11.9,5.4-25.8,0-30.7c-5-4.6-11-1.8-12.5,6.3
			c-1.6,8.1,2,28.5-8.5,42.1L190.8,410.7L190.8,410.7z"/>
		<path id="XMLID_1430_" class="st7" d="M200.6,364.6c0,0,1.6,12.2-2,25.1c-3.6,13-10.3,21-10.3,21"/>
	</g>
	<path id="XMLID_1422_" class="st28" d="M599,412.9H17c-1.2,0-2.2-1-2.2-2.2s1-2.2,2.2-2.2h582c1.2,0,2.2,1,2.2,2.2
		C601.3,411.9,600.3,412.9,599,412.9z"/>
	<path id="XMLID_1421_" class="st33" d="M531.7,468.4H145.8c-17.5,0-31.6-14.2-31.6-31.6V413h449.2v23.8
		C563.4,454.2,549.2,468.4,531.7,468.4z"/>
</g>
<g id="XMLID_1372_">
	<g id="XMLID_1394_">
		<g id="XMLID_1412_">
			<path id="XMLID_1419_" class="st34" d="M177,406.1c0.4,0.7,0.1,2-2.6,3.2c-2.7,1.1-7.6,0.7-9.6,0.3c-2-0.4-3.1-1-6-0.3
				c-2.9,0.6-7.6,0.3-9.1-0.9c-0.5-0.6-0.2-1.8-0.2-1.8L177,406.1L177,406.1z"/>
			<g id="XMLID_1414_">
				<g>
					<path id="SVGID_20_" class="st35" d="M151.1,397.6c-0.4,2-2,6.7-1.5,8.9c2,1.7,6.4,1.8,9.6,1s5.6,0.8,9.6,1.1
						c4,0.2,7.4-0.9,8.2-2.6c0.9-1.8-6.1-3.3-10.9-4.7c-5.3-1.6-8.1-4.3-8.1-4.3L151.1,397.6L151.1,397.6z"/>
				</g>
				<g>
					<defs>
						<path id="SVGID_23_" d="M151.1,397.6c-0.4,2-2,6.7-1.5,8.9c2,1.7,6.4,1.8,9.6,1s5.6,0.8,9.6,1.1c4,0.2,7.4-0.9,8.2-2.6
							c0.9-1.8-6.1-3.3-10.9-4.7c-5.3-1.6-8.1-4.3-8.1-4.3L151.1,397.6L151.1,397.6z"/>
					</defs>
					<clipPath id="SVGID_24_">
						<use xlink:href="#SVGID_23_"  style="overflow:visible;"/>
					</clipPath>
					<g id="XMLID_1418_" class="st36">
						<path class="st37" d="M159.6,401.5c0,0,1-2.7,2.2-3.6"/>
					</g>
				</g>
				<g>
					<defs>
						<path id="SVGID_25_" d="M151.1,397.6c-0.4,2-2,6.7-1.5,8.9c2,1.7,6.4,1.8,9.6,1s5.6,0.8,9.6,1.1c4,0.2,7.4-0.9,8.2-2.6
							c0.9-1.8-6.1-3.3-10.9-4.7c-5.3-1.6-8.1-4.3-8.1-4.3L151.1,397.6L151.1,397.6z"/>
					</defs>
					<clipPath id="SVGID_26_">
						<use xlink:href="#SVGID_25_"  style="overflow:visible;"/>
					</clipPath>
					<g id="XMLID_1417_" class="st38">
						<path class="st37" d="M163.2,402.9c0,0,1-2.7,2.2-3.6"/>
					</g>
				</g>
				<g>
					<defs>
						<path id="SVGID_27_" d="M151.1,397.6c-0.4,2-2,6.7-1.5,8.9c2,1.7,6.4,1.8,9.6,1s5.6,0.8,9.6,1.1c4,0.2,7.4-0.9,8.2-2.6
							c0.9-1.8-6.1-3.3-10.9-4.7c-5.3-1.6-8.1-4.3-8.1-4.3L151.1,397.6L151.1,397.6z"/>
					</defs>
					<clipPath id="SVGID_28_">
						<use xlink:href="#SVGID_27_"  style="overflow:visible;"/>
					</clipPath>
					<g id="XMLID_1416_" class="st39">
						<path class="st37" d="M166.9,404.3c0,0,1-2.7,2.2-3.6"/>
					</g>
				</g>
			</g>
			<path id="XMLID_1413_" class="st15" d="M151.1,389.7v7.9c0,0,0.9,0.3,1.3,0.8c0.4,0.4,0.9,1.9,1.5,2c2.6,0.1,4.1-3.3,4.1-3.3
				l1-7.2L151.1,389.7L151.1,389.7z"/>
		</g>
		<g id="XMLID_1404_">
			<path id="XMLID_1411_" class="st9" d="M87.3,408.1c-0.6,0.5-1.9,0.6-3.8-1.7c-1.8-2.3-2.6-7.2-2.8-9.2c-0.1-2,0.1-3.3-1.3-5.9
				c-1.3-2.6-2.3-7.3-1.6-9c0.4-0.6,1.7-0.6,1.7-0.6L87.3,408.1L87.3,408.1z"/>
			<g id="XMLID_1406_">
				<g>
					<path id="SVGID_22_" class="st25" d="M88.6,380.9c-2,0.1-6.9-0.2-9,0.9c-1.1,2.4-0.1,6.6,1.6,9.6c1.7,2.9,0.6,5.6,1.5,9.6
						c0.8,3.9,2.8,6.9,4.6,7.2c2,0.4,1.5-6.8,1.7-11.8c0.2-5.6,2-9,2-9L88.6,380.9L88.6,380.9z"/>
				</g>
				<g>
					<defs>
						<path id="SVGID_29_" d="M88.6,380.9c-2,0.1-6.9-0.2-9,0.9c-1.1,2.4-0.1,6.6,1.6,9.6c1.7,2.9,0.6,5.6,1.5,9.6
							c0.8,3.9,2.8,6.9,4.6,7.2c2,0.4,1.5-6.8,1.7-11.8c0.2-5.6,2-9,2-9L88.6,380.9L88.6,380.9z"/>
					</defs>
					<clipPath id="SVGID_30_">
						<use xlink:href="#SVGID_29_"  style="overflow:visible;"/>
					</clipPath>
					<g id="XMLID_1410_" class="st40">
						<path class="st41" d="M87.2,390.1c0,0,2.9,0.2,4,1.2"/>
					</g>
				</g>
				<g>
					<defs>
						<path id="SVGID_31_" d="M88.6,380.9c-2,0.1-6.9-0.2-9,0.9c-1.1,2.4-0.1,6.6,1.6,9.6c1.7,2.9,0.6,5.6,1.5,9.6
							c0.8,3.9,2.8,6.9,4.6,7.2c2,0.4,1.5-6.8,1.7-11.8c0.2-5.6,2-9,2-9L88.6,380.9L88.6,380.9z"/>
					</defs>
					<clipPath id="SVGID_32_">
						<use xlink:href="#SVGID_31_"  style="overflow:visible;"/>
					</clipPath>
					<g id="XMLID_1409_" class="st42">
						<path class="st41" d="M86.7,394c0,0,2.9,0.2,4,1.2"/>
					</g>
				</g>
				<g>
					<defs>
						<path id="SVGID_33_" d="M88.6,380.9c-2,0.1-6.9-0.2-9,0.9c-1.1,2.4-0.1,6.6,1.6,9.6c1.7,2.9,0.6,5.6,1.5,9.6
							c0.8,3.9,2.8,6.9,4.6,7.2c2,0.4,1.5-6.8,1.7-11.8c0.2-5.6,2-9,2-9L88.6,380.9L88.6,380.9z"/>
					</defs>
					<clipPath id="SVGID_34_">
						<use xlink:href="#SVGID_33_"  style="overflow:visible;"/>
					</clipPath>
					<g id="XMLID_1408_" class="st43">
						<path class="st41" d="M86.3,397.9c0,0,2.9,0.2,4,1.2"/>
					</g>
				</g>
			</g>
			<path id="XMLID_1405_" class="st15" d="M93.7,377.2l-5.1,3.7c0,0-0.1,1-0.4,1.5s-1.6,1.4-1.5,2c0.6,2.5,4.2,3.1,4.2,3.1l7.1-3.8
				L93.7,377.2L93.7,377.2z"/>
		</g>
		<path id="XMLID_1403_" class="st10" d="M166.3,277c-8.9,0-15.5,0.7-15.5,0.7c-2.8,1.2-7.7,7.7-9.1,11.8c-1.4,4.1,0.7,9.8,1.4,13.3
			c4.2,19.6,8.4,33.2,10,41c1,4.8-2.5,5.5-2.6,13c0,10.8,0.4,33.7,0.4,33.7s3.3,1.9,7.7,0.6c0,0,6.6-37.9,7.4-42.2
			c1.2-7,1.6-10,1.7-22.1C168,309.7,166.3,277,166.3,277L166.3,277z"/>
		<path id="XMLID_1402_" class="st19" d="M166.2,291.9c-1.5,6.9-11.4,15.3-11.4,15.3c-1.1,3.2-15.7,53.1-18.1,55
			c-2.4,1.9-38.6,21.5-38.6,21.5c-1.7-0.9-2.8-2.4-3.4-3.6c-0.5-1-0.7-1.9-0.8-2.4c0-0.2-0.1-0.3-0.1-0.3v-0.1
			c0,0,18.5-19.6,22.9-21.7c4.8-2.3,7.5-2.9,7.5-2.9c5-23.2,4.8-41.3,8.9-54.1c0.7-2.4,1.5-4.5,2.3-6.3c1-2.3,1.8-4.2,2.5-5.8
			c0.3-0.7,0.5-1.3,0.7-1.9c0.2-0.6,0.4-1.2,0.6-1.7c0.1-0.4,0.2-0.7,0.3-1c0.5-1.5,0.8-2.6,1.1-3.7c0.2-0.5,0.3-1,0.5-1.5
			c0.1-0.2,0.2-0.5,0.3-0.7c0.1-0.3,0.2-0.5,0.3-0.8l6.9,5.2l3.3,2.5L166.2,291.9L166.2,291.9z"/>
		<path id="XMLID_1401_" class="st20" d="M151.9,282.8c-1,1.3-2.4,2.9-4.2,4.5c-5.1,4.5-8.2,11.4-11,25.9
			c-3.1,16.3-8.3,40.4-8.9,41.9s-5.2,0.9-13.5,7c-6.3,4.6-15.5,14.2-19.6,17.9c-0.5-1-0.7-1.9-0.8-2.4c0-0.2,0-0.3-0.1-0.3v-0.1
			c0,0,18.5-19.6,22.9-21.7c4.8-2.3,7.5-2.9,7.5-2.9c4.8-23.2,4.8-41.3,8.9-54.1c0.7-2.4,1.5-4.5,2.4-6.3c1-2.3,1.8-4.2,2.4-5.8
			c0.3-0.7,0.5-1.3,0.7-1.9c0.2-0.6,0.4-1.2,0.6-1.7c0.1-0.4,0.2-0.7,0.3-1c0.5-1.5,0.8-2.6,1.1-3.7c0.2-0.5,0.3-1,0.5-1.5
			c0.1-0.2,0.2-0.5,0.3-0.7c0.1-0.3,0.2-0.5,0.3-0.7l6.9,5.2L151.9,282.8z"/>
		<path id="XMLID_1400_" class="st20" d="M166.2,291.9c0,0-4.5,5.9-17,6.4c-8.6,0.3-14.1-3.1-14.1-3.1l3.4-5.3L166.2,291.9
			L166.2,291.9z"/>
		<g id="XMLID_1395_">
			<g>
				<defs>
					<path id="SVGID_35_" d="M98.1,383.6c0,0,36.2-19.6,38.6-21.5s17-51.8,18.1-55c0,0,10.7-8.7,12.2-15.7l-24.8-16.2
						c-1.9,4.1-1.9,6.8-6.9,17c-4.8,9.7-6.6,37.1-11.2,60.4c0,0-2.7,0.6-7.5,2.9c-4.4,2.1-22.9,21.7-22.9,21.7
						S94.2,381.6,98.1,383.6z"/>
				</defs>
				<clipPath id="SVGID_36_">
					<use xlink:href="#SVGID_35_"  style="overflow:visible;"/>
				</clipPath>
				<path id="XMLID_1399_" class="st44" d="M161,278.2c-5.2,6.7-11.9,10.8-14.6,15.3c-2.8,4.6-4.3,14.5-7.9,32.6
					c-3.6,18-6.8,30.3-7.8,31.4s-7.1,2.2-16.6,8.6s-20.6,16.7-20.6,16.7"/>
			</g>
			<g>
				<defs>
					<path id="SVGID_37_" d="M98.1,383.6c0,0,36.2-19.6,38.6-21.5s17-51.8,18.1-55c0,0,10.7-8.7,12.2-15.7l-24.8-16.2
						c-1.9,4.1-1.9,6.8-6.9,17c-4.8,9.7-6.6,37.1-11.2,60.4c0,0-2.7,0.6-7.5,2.9c-4.4,2.1-22.9,21.7-22.9,21.7
						S94.2,381.6,98.1,383.6z"/>
				</defs>
				<clipPath id="SVGID_38_">
					<use xlink:href="#SVGID_37_"  style="overflow:visible;"/>
				</clipPath>
				<path id="XMLID_1398_" class="st45" d="M155.2,294.1c0,0-2.1,11.4-12.2,9.5"/>
			</g>
			<g>
				<defs>
					<path id="SVGID_39_" d="M98.1,383.6c0,0,36.2-19.6,38.6-21.5s17-51.8,18.1-55c0,0,10.7-8.7,12.2-15.7l-24.8-16.2
						c-1.9,4.1-1.9,6.8-6.9,17c-4.8,9.7-6.6,37.1-11.2,60.4c0,0-2.7,0.6-7.5,2.9c-4.4,2.1-22.9,21.7-22.9,21.7
						S94.2,381.6,98.1,383.6z"/>
				</defs>
				<clipPath id="SVGID_40_">
					<use xlink:href="#SVGID_39_"  style="overflow:visible;"/>
				</clipPath>
				<path id="XMLID_1397_" class="st46" d="M95.7,373.7c0,3.1,2.2,7.5,6.1,9.9"/>
			</g>
		</g>
	</g>
	<g id="XMLID_1390_">
		<g id="XMLID_1391_">
			<path id="XMLID_1393_" class="st15" d="M153.6,226.1l8.6,7.4l4.9-11.7l-10.2-5.9L153.6,226.1z"/>
			<path id="XMLID_1392_" class="st27" d="M165.7,225.2c0,0-10.1-2.8-8.8-9.4l10.2,5.9L165.7,225.2z"/>
		</g>
	</g>
	<path id="XMLID_1389_" class="st3" d="M162,233.2c2,1.7,3.2,4,3.5,6.6c0.5,4.1,0.8,10.4,1.2,19.4c0.3,8.2,1.1,31.9,1.1,31.9
		s-6.3,4.1-16.8,3.3c-10.1-0.8-14.4-5.7-14.4-5.7s1-33.4,4.4-46.5c4.9-13.5,12.6-15.9,12.6-15.9L162,233.2z"/>
	<g id="XMLID_1378_">
		<path id="XMLID_1388_" class="st27" d="M172.3,206.3c0.5,0.9,3.3,4.8,4.2,5.9c0.9,1.1-2.7,1.4-2.7,1.4L172.3,206.3L172.3,206.3z"
			/>
		<path id="XMLID_1387_" class="st15" d="M156.9,215.9c0,0,0.6,1.3,1.2,2.3c0.6,1,9,4.4,11.2,4.7s5.2-0.2,4.6-7.6
			c-0.6-7.4-2.5-13.8-7.4-17.2c-5-3.4-11.9,0.3-14.9,5.1C148.6,207.9,151.8,217.3,156.9,215.9L156.9,215.9z"/>
		<path id="XMLID_1386_" class="st24" d="M156.9,215.9l-1.1,3.4c0,0-0.8,0.4-3-2.3c-2.3-2.9-6.6-7.9-6.2-11.1
			c0.6-4.2,5.3-5.6,5.3-5.6s2.4-7.7,11.9-11.7c9.5-4.1,13.7,2.8,6.4,7.8c0,0,5.1,2.5,1.9,4.5c-3.2,1.9-12.4,1.7-12.4,1.7
			s4.5,1.7,3.2,3s-7.1,0.7-7.1,0.7l0.7,2.9c0,0-2.4-0.7-3.6,0.8C151.3,211.9,153.7,216.8,156.9,215.9L156.9,215.9z"/>
		<path id="XMLID_1385_" class="st29" d="M151,191.4c0,0-2.8,6.1,2.5,10.2c0,0-5.3-0.2-6.4-5.2"/>
		<g id="XMLID_1379_">
			<g id="XMLID_1382_">
				<path id="XMLID_1384_" class="st24" d="M168.5,207.8c-0.2-0.5-0.7-0.7-1.2-0.6c-0.5,0.2-0.7,0.7-0.6,1.2
					c0.2,0.5,0.7,0.7,1.2,0.6C168.4,208.8,168.7,208.3,168.5,207.8z"/>
				<path id="XMLID_1383_" class="st24" d="M168.6,205.3l-3.7,2.4c0,0-0.3-1.4,1-2.2C167.5,204.5,168.6,205.3,168.6,205.3z"/>
			</g>
			<path id="XMLID_1381_" class="st27" d="M154,210.9c0.5-0.3,1.3-0.6,1.9-0.3c0.2,0.1,0,0.5-0.2,0.4c-1-0.1-2.2,0.2-2.3,1.4
				c0,0.1-0.1,0-0.1,0C153.2,211.8,153.5,211.3,154,210.9L154,210.9z"/>
			<path id="XMLID_1380_" class="st27" d="M154.4,210.9c0.1-0.1,0.4,0.1,0.4,0.2c-0.1,0.1-0.3,0.4-0.4,0.6c-0.1,0.4-0.1,0.7,0.1,1.1
				c0.3,0.9,1,1.4,2,1.4c0,0,0.1,0,0,0.1c-0.7,0.4-1.8-0.1-2.2-0.8C153.9,212.7,153.7,211.6,154.4,210.9L154.4,210.9z"/>
		</g>
	</g>
	<path id="XMLID_1377_" class="st4" d="M149.9,233.5c-2.1,1.1-4.8,7.1-2.9,13.6s4.4,13.2,4.4,13.2s10-2.4,12.6-8.7
		c0,0-3.5-8.6-5.2-12.1S155.2,230.8,149.9,233.5L149.9,233.5z"/>
	<path id="XMLID_1376_" class="st4" d="M160.4,271.1c2.2,2.2,5.3,4.7,7,5.4c-0.1-3.8-0.3-7-0.4-10.5l-7.5-9.9l-4.9-1.3l-1.8,5.1
		C152.8,259.9,156.8,267.5,160.4,271.1L160.4,271.1z"/>
	<path id="XMLID_1375_" class="st15" d="M152.3,233.5c-4.7,1.3-6.3,8-1.6,18.5c4.6,10.1,11.9,19.3,16.4,22.4s22,2.1,36.7-2.2
		c0,0,8.3-3,10.7-5.1c5.2-4.6,5.4-10.7,1.6-9.8c-3.8,0.9-9.8,5-9.8,5s-1.6-3.1-2.7-5.6c0,0-1,0.3-1.4,2.4c-0.4,2.2-0.3,5.2-1,5.6
		c-1.7,1.2-25.2,3.1-28,0.4c-3.2-3.1-7.8-11.4-11-19.1C158.6,237.7,157.1,232.2,152.3,233.5L152.3,233.5z"/>
	<path id="XMLID_1373_" class="st3" d="M150.7,232.4c-2.1,1.1-4.8,7.1-2.9,13.6s4.4,13.2,4.4,13.2s9.4-1.4,13.4-6.8
		c0,0-4.3-10.6-5.9-14C158.1,234.8,155.9,229.6,150.7,232.4z"/>
</g>
<path class="st47" d="M304.9,26.3c-10.4,0-19.9,1.7-28.6,4.3c-24.2-17.3-52.8-26.8-84.8-26.8C110.1,3.8,44.3,69.6,44.3,151
	c0,9.5,0.9,19,2.6,27.7C14,198.6-2.4,239.3,9.7,277.4c11.3,33.8,41.6,56.3,75.3,58c-22.5-6.9-41.6-25.1-49.3-49.3
	c-9.5-28.6-0.9-59.7,19.9-79.6l17.3-12.1v-26C77.2,93,141.3,32.4,219.2,32.4c14.7,0,28.6,1.7,41.6,6.1c6.9,1.7,13,4.3,19,6.9
	c5.2,2.6,10.4,5.2,15.6,7.8c5.2,3.5,10.4,6.9,15.6,10.4c-3.5-4.3-6.1-7.8-9.5-12.1c6.1-1.7,12.1-1.7,18.2-1.7
	c30.3,0,56.3,18.2,68.4,43.3C379.4,55.8,345.6,26.3,304.9,26.3z"/>
</svg>
